REM DIRINDEX 1\2,1\3,1\4
REM DIRNAME folder01,folder02,folder03,folder04
TITLE ""
FILE "Track3.mp3" MP3
  TRACK 01 AUDIO
    TITLE "0:"
    INDEX 01 00:00:00
  TRACK 02 AUDIO
    TITLE "4:cjc090_0812"
    INDEX 01 00:00:23
  TRACK 03 AUDIO
    TITLE "0:"
    INDEX 01 00:06:20
  TRACK 04 AUDIO
    TITLE "3:cjc090_0813"
    INDEX 01 00:07:19
  TRACK 05 AUDIO
    TITLE "2:cjc090_0814"
    INDEX 01 00:08:24
  TRACK 06 AUDIO
    TITLE "0:"
    INDEX 01 00:11:15
  TRACK 07 AUDIO
    TITLE "3:cjc090_0815"
    INDEX 01 00:11:37
  TRACK 08 AUDIO
    TITLE "2:cjc090_0816"
    INDEX 01 00:12:42
  TRACK 09 AUDIO
    TITLE "0:"
    INDEX 01 00:13:35
  TRACK 10 AUDIO
    TITLE "3:cjc090_0817"
    INDEX 01 00:13:55
  TRACK 11 AUDIO
    TITLE "2:cjc090_0818"
    INDEX 01 00:14:74
  TRACK 12 AUDIO
    TITLE "0:"
    INDEX 01 00:16:69
  TRACK 13 AUDIO
    TITLE "3:cjc090_0819"
    INDEX 01 00:17:16
  TRACK 14 AUDIO
    TITLE "2:cjc090_0820"
    INDEX 01 00:18:27
  TRACK 15 AUDIO
    TITLE "0:"
    INDEX 01 00:20:28
  TRACK 16 AUDIO
    TITLE "3:cjc090_0821"
    INDEX 01 00:20:49
  TRACK 17 AUDIO
    TITLE "2:cjc090_0822"
    INDEX 01 00:21:74
  TRACK 18 AUDIO
    TITLE "0:"
    INDEX 01 00:23:50
  TRACK 19 AUDIO
    TITLE "3:cjc090_0823"
    INDEX 01 00:23:71
  TRACK 20 AUDIO
    TITLE "2:cjc090_0824"
    INDEX 01 00:25:15
  TRACK 21 AUDIO
    TITLE "0:"
    INDEX 01 00:26:05
  TRACK 22 AUDIO
    TITLE "3:cjc090_0825"
    INDEX 01 00:26:22
  TRACK 23 AUDIO
    TITLE "2:cjc090_0826"
    INDEX 01 00:27:45
  TRACK 24 AUDIO
    TITLE "0:"
    INDEX 01 00:33:21
  TRACK 25 AUDIO
    TITLE "3:cjc090_0827"
    INDEX 01 00:33:40
  TRACK 26 AUDIO
    TITLE "2:cjc090_0828"
    INDEX 01 00:34:47
  TRACK 27 AUDIO
    TITLE "0:"
    INDEX 01 00:35:57
  TRACK 28 AUDIO
    TITLE "3:cjc090_0829"
    INDEX 01 00:36:03
  TRACK 29 AUDIO
    TITLE "2:cjc090_0830"
    INDEX 01 00:37:10
  TRACK 30 AUDIO
    TITLE "0:"
    INDEX 01 00:40:62
  TRACK 31 AUDIO
    TITLE "3:cjc090_0831"
    INDEX 01 00:41:08
  TRACK 32 AUDIO
    TITLE "2:cjc090_0832"
    INDEX 01 00:42:06
  TRACK 33 AUDIO
    TITLE "0:"
    INDEX 01 00:43:40
  TRACK 34 AUDIO
    TITLE "3:cjc090_0833"
    INDEX 01 00:43:60
  TRACK 35 AUDIO
    TITLE "2:cjc090_0834"
    INDEX 01 00:44:71
  TRACK 36 AUDIO
    TITLE "0:"
    INDEX 01 00:49:02
  TRACK 37 AUDIO
    TITLE "3:cjc090_0835"
    INDEX 01 00:49:23
  TRACK 38 AUDIO
    TITLE "2:cjc090_0836"
    INDEX 01 00:50:46
  TRACK 39 AUDIO
    TITLE "0:"
    INDEX 01 00:51:48
  TRACK 40 AUDIO
    TITLE "3:cjc090_0837"
    INDEX 01 00:51:67
  TRACK 41 AUDIO
    TITLE "2:cjc090_0838"
    INDEX 01 00:53:13
  TRACK 42 AUDIO
    TITLE "0:"
    INDEX 01 00:54:68
  TRACK 43 AUDIO
    TITLE "3:cjc090_0839"
    INDEX 01 00:55:12
  TRACK 44 AUDIO
    TITLE "2:cjc090_0840"
    INDEX 01 00:56:25
  TRACK 45 AUDIO
    TITLE "0:"
    INDEX 01 00:57:62
  TRACK 46 AUDIO
    TITLE "3:cjc090_0841"
    INDEX 01 00:58:05
  TRACK 47 AUDIO
    TITLE "2:cjc090_0842"
    INDEX 01 00:59:24
  TRACK 48 AUDIO
    TITLE "0:"
    INDEX 01 01:00:55
  TRACK 49 AUDIO
    TITLE "3:cjc090_0843"
    INDEX 01 01:00:74
  TRACK 50 AUDIO
    TITLE "2:cjc090_0844"
    INDEX 01 01:02:12
  TRACK 51 AUDIO
    TITLE "0:"
    INDEX 01 01:05:11
  TRACK 52 AUDIO
    TITLE "3:cjc090_0845"
    INDEX 01 01:05:30
  TRACK 53 AUDIO
    TITLE "2:cjc090_0846"
    INDEX 01 01:06:43
  TRACK 54 AUDIO
    TITLE "0:"
    INDEX 01 01:07:55
  TRACK 55 AUDIO
    TITLE "3:cjc090_0847"
    INDEX 01 01:07:74
  TRACK 56 AUDIO
    TITLE "2:cjc090_0848"
    INDEX 01 01:09:01
  TRACK 57 AUDIO
    TITLE "0:"
    INDEX 01 01:10:00
  TRACK 58 AUDIO
    TITLE "3:cjc090_0849"
    INDEX 01 01:10:20
  TRACK 59 AUDIO
    TITLE "2:cjc090_0850"
    INDEX 01 01:11:37
  TRACK 60 AUDIO
    TITLE "0:"
    INDEX 01 01:15:52
  TRACK 61 AUDIO
    TITLE "3:cjc090_0851"
    INDEX 01 01:15:72
  TRACK 62 AUDIO
    TITLE "2:cjc090_0852"
    INDEX 01 01:16:67
  TRACK 63 AUDIO
    TITLE "0:"
    INDEX 01 01:18:02
  TRACK 64 AUDIO
    TITLE "3:cjc090_0853"
    INDEX 01 01:18:21
  TRACK 65 AUDIO
    TITLE "2:cjc090_0854"
    INDEX 01 01:19:36
  TRACK 66 AUDIO
    TITLE "0:"
    INDEX 01 01:21:25
  TRACK 67 AUDIO
    TITLE "3:cjc090_0855"
    INDEX 01 01:21:49
  TRACK 68 AUDIO
    TITLE "2:cjc090_0856"
    INDEX 01 01:22:42
  TRACK 69 AUDIO
    TITLE "0:"
    INDEX 01 01:23:63
  TRACK 70 AUDIO
    TITLE "3:cjc090_0857"
    INDEX 01 01:24:08
  TRACK 71 AUDIO
    TITLE "2:cjc090_0858"
    INDEX 01 01:25:11
  TRACK 72 AUDIO
    TITLE "0:"
    INDEX 01 01:26:11
  TRACK 73 AUDIO
    TITLE "3:cjc090_0859"
    INDEX 01 01:26:30
  TRACK 74 AUDIO
    TITLE "2:cjc090_0860"
    INDEX 01 01:27:51
  TRACK 75 AUDIO
    TITLE "0:"
    INDEX 01 01:29:46
  TRACK 76 AUDIO
    TITLE "3:cjc090_0861"
    INDEX 01 01:29:64
  TRACK 77 AUDIO
    TITLE "2:cjc090_0862"
    INDEX 01 01:30:62
  TRACK 78 AUDIO
    TITLE "0:"
    INDEX 01 01:31:61
  TRACK 79 AUDIO
    TITLE "3:cjc090_0863"
    INDEX 01 01:32:06
  TRACK 80 AUDIO
    TITLE "2:cjc090_0864"
    INDEX 01 01:33:07
  TRACK 81 AUDIO
    TITLE "0:"
    INDEX 01 01:34:52
  TRACK 82 AUDIO
    TITLE "3:cjc090_0865"
    INDEX 01 01:34:71
  TRACK 83 AUDIO
    TITLE "2:cjc090_0866"
    INDEX 01 01:36:23
  TRACK 84 AUDIO
    TITLE "0:"
    INDEX 01 01:37:34
  TRACK 85 AUDIO
    TITLE "3:cjc090_0867"
    INDEX 01 01:37:54
  TRACK 86 AUDIO
    TITLE "2:cjc090_0868"
    INDEX 01 01:38:73
  TRACK 87 AUDIO
    TITLE "0:"
    INDEX 01 01:40:03
  TRACK 88 AUDIO
    TITLE "3:cjc090_0869"
    INDEX 01 01:40:25
  TRACK 89 AUDIO
    TITLE "2:cjc090_0870"
    INDEX 01 01:41:44
  TRACK 90 AUDIO
    TITLE "0:"
    INDEX 01 01:43:02
  TRACK 91 AUDIO
    TITLE "3:cjc090_0871"
    INDEX 01 01:43:23
  TRACK 92 AUDIO
    TITLE "2:cjc090_0872"
    INDEX 01 01:44:19
  TRACK 93 AUDIO
    TITLE "0:"
    INDEX 01 01:45:14
  TRACK 94 AUDIO
    TITLE "3:cjc090_0873"
    INDEX 01 01:45:34
  TRACK 95 AUDIO
    TITLE "2:cjc090_0874"
    INDEX 01 01:46:49
  TRACK 96 AUDIO
    TITLE "0:"
    INDEX 01 01:51:05
  TRACK 97 AUDIO
    TITLE "3:cjc090_0875"
    INDEX 01 01:51:27
  TRACK 98 AUDIO
    TITLE "2:cjc090_0876"
    INDEX 01 01:52:46
  TRACK 99 AUDIO
    TITLE "0:"
    INDEX 01 01:53:65
  TRACK 100 AUDIO
    TITLE "3:cjc090_0877"
    INDEX 01 01:54:09
  TRACK 101 AUDIO
    TITLE "2:cjc090_0878"
    INDEX 01 01:55:13
  TRACK 102 AUDIO
    TITLE "0:"
    INDEX 01 01:56:71
  TRACK 103 AUDIO
    TITLE "3:cjc090_0879"
    INDEX 01 01:57:17
  TRACK 104 AUDIO
    TITLE "2:cjc090_0880"
    INDEX 01 01:58:34
  TRACK 105 AUDIO
    TITLE "0:"
    INDEX 01 01:59:36
  TRACK 106 AUDIO
    TITLE "3:cjc090_0881"
    INDEX 01 01:59:57
  TRACK 107 AUDIO
    TITLE "2:cjc090_0882"
    INDEX 01 02:00:57
  TRACK 108 AUDIO
    TITLE "0:"
    INDEX 01 02:02:44
  TRACK 109 AUDIO
    TITLE "3:cjc090_0883"
    INDEX 01 02:02:64
  TRACK 110 AUDIO
    TITLE "2:cjc090_0884"
    INDEX 01 02:04:04
  TRACK 111 AUDIO
    TITLE "0:"
    INDEX 01 02:07:31
  TRACK 112 AUDIO
    TITLE "3:cjc090_0885"
    INDEX 01 02:07:51
  TRACK 113 AUDIO
    TITLE "2:cjc090_0886"
    INDEX 01 02:08:68
  TRACK 114 AUDIO
    TITLE "0:"
    INDEX 01 02:10:55
  TRACK 115 AUDIO
    TITLE "3:cjc090_0887"
    INDEX 01 02:11:00
  TRACK 116 AUDIO
    TITLE "2:cjc090_0888"
    INDEX 01 02:12:15
  TRACK 117 AUDIO
    TITLE "0:"
    INDEX 01 02:13:73
  TRACK 118 AUDIO
    TITLE "3:cjc090_0889"
    INDEX 01 02:14:20
  TRACK 119 AUDIO
    TITLE "2:cjc090_0890"
    INDEX 01 02:15:35
  TRACK 120 AUDIO
    TITLE "0:"
    INDEX 01 02:18:49
  TRACK 121 AUDIO
    TITLE "3:cjc090_0891"
    INDEX 01 02:18:68
  TRACK 122 AUDIO
    TITLE "2:cjc090_0892"
    INDEX 01 02:20:16
  TRACK 123 AUDIO
    TITLE "0:"
    INDEX 01 02:21:26
  TRACK 124 AUDIO
    TITLE "3:cjc090_0893"
    INDEX 01 02:21:47
  TRACK 125 AUDIO
    TITLE "2:cjc090_0894"
    INDEX 01 02:22:54
  TRACK 126 AUDIO
    TITLE "0:"
    INDEX 01 02:24:20
  TRACK 127 AUDIO
    TITLE "3:cjc090_0895"
    INDEX 01 02:24:40
  TRACK 128 AUDIO
    TITLE "2:cjc090_0896"
    INDEX 01 02:25:55
  TRACK 129 AUDIO
    TITLE "0:"
    INDEX 01 02:28:02
  TRACK 130 AUDIO
    TITLE "3:cjc090_0897"
    INDEX 01 02:28:24
  TRACK 131 AUDIO
    TITLE "2:cjc090_0898"
    INDEX 01 02:29:33
  TRACK 132 AUDIO
    TITLE "0:"
    INDEX 01 02:31:22
  TRACK 133 AUDIO
    TITLE "3:cjc090_0899"
    INDEX 01 02:31:42
  TRACK 134 AUDIO
    TITLE "2:cjc090_0900"
    INDEX 01 02:33:50
  TRACK 135 AUDIO
    TITLE "0:"
    INDEX 01 02:35:43
  TRACK 136 AUDIO
    TITLE "3:cjc090_0901"
    INDEX 01 02:35:63
  TRACK 137 AUDIO
    TITLE "2:cjc090_0902"
    INDEX 01 02:37:03
  TRACK 138 AUDIO
    TITLE "0:"
    INDEX 01 02:38:05
  TRACK 139 AUDIO
    TITLE "3:cjc090_0903"
    INDEX 01 02:38:26
  TRACK 140 AUDIO
    TITLE "2:cjc090_0904"
    INDEX 01 02:39:37
  TRACK 141 AUDIO
    TITLE "0:"
    INDEX 01 02:41:28
  TRACK 142 AUDIO
    TITLE "3:cjc090_0905"
    INDEX 01 02:41:48
  TRACK 143 AUDIO
    TITLE "2:cjc090_0906"
    INDEX 01 02:43:12
  TRACK 144 AUDIO
    TITLE "0:"
    INDEX 01 02:45:12
  TRACK 145 AUDIO
    TITLE "3:cjc090_0907"
    INDEX 01 02:45:32
  TRACK 146 AUDIO
    TITLE "2:cjc090_0908"
    INDEX 01 02:46:39
  TRACK 147 AUDIO
    TITLE "0:"
    INDEX 01 02:47:35
  TRACK 148 AUDIO
    TITLE "3:cjc090_0909"
    INDEX 01 02:47:54
  TRACK 149 AUDIO
    TITLE "2:cjc090_0910"
    INDEX 01 02:48:52
  TRACK 150 AUDIO
    TITLE "0:"
    INDEX 01 02:50:27
  TRACK 151 AUDIO
    TITLE "3:cjc090_0911"
    INDEX 01 02:50:49
  TRACK 152 AUDIO
    TITLE "2:cjc090_0912"
    INDEX 01 02:51:58
  TRACK 153 AUDIO
    TITLE "0:"
    INDEX 01 02:53:30
  TRACK 154 AUDIO
    TITLE "3:cjc090_0913"
    INDEX 01 02:53:49
  TRACK 155 AUDIO
    TITLE "2:cjc090_0914"
    INDEX 01 02:54:62
  TRACK 156 AUDIO
    TITLE "0:"
    INDEX 01 02:56:53
  TRACK 157 AUDIO
    TITLE "3:cjc090_0915"
    INDEX 01 02:56:73
  TRACK 158 AUDIO
    TITLE "2:cjc090_0916"
    INDEX 01 02:58:03
  TRACK 159 AUDIO
    TITLE "0:"
    INDEX 01 02:59:09
  TRACK 160 AUDIO
    TITLE "3:cjc090_0917"
    INDEX 01 02:59:30
  TRACK 161 AUDIO
    TITLE "2:cjc090_0918"
    INDEX 01 03:00:39
  TRACK 162 AUDIO
    TITLE "0:"
    INDEX 01 03:02:11
  TRACK 163 AUDIO
    TITLE "3:cjc090_0919"
    INDEX 01 03:02:30
  TRACK 164 AUDIO
    TITLE "2:cjc090_0920"
    INDEX 01 03:03:34
  TRACK 165 AUDIO
    TITLE "0:"
    INDEX 01 03:04:39
  TRACK 166 AUDIO
    TITLE "3:cjc090_0921"
    INDEX 01 03:04:59
  TRACK 167 AUDIO
    TITLE "2:cjc090_0922"
    INDEX 01 03:05:72
  TRACK 168 AUDIO
    TITLE "0:"
    INDEX 01 03:06:69
  TRACK 169 AUDIO
    TITLE "3:cjc090_0923"
    INDEX 01 03:07:16
  TRACK 170 AUDIO
    TITLE "2:cjc090_0924"
    INDEX 01 03:08:41
  TRACK 171 AUDIO
    TITLE "0:"
    INDEX 01 03:09:70
  TRACK 172 AUDIO
    TITLE "3:cjc090_0925"
    INDEX 01 03:10:14
  TRACK 173 AUDIO
    TITLE "2:cjc090_0926"
    INDEX 01 03:11:27
  TRACK 174 AUDIO
    TITLE "0:"
    INDEX 01 03:13:21
  TRACK 175 AUDIO
    TITLE "3:cjc090_0927"
    INDEX 01 03:13:40
  TRACK 176 AUDIO
    TITLE "2:cjc090_0928"
    INDEX 01 03:14:55
  TRACK 177 AUDIO
    TITLE "0:"
    INDEX 01 03:15:55
  TRACK 178 AUDIO
    TITLE "3:cjc090_0929"
    INDEX 01 03:15:74
  TRACK 179 AUDIO
    TITLE "2:cjc090_0930"
    INDEX 01 03:17:12
  TRACK 180 AUDIO
    TITLE "0:"
    INDEX 01 03:18:08
  TRACK 181 AUDIO
    TITLE "3:cjc090_0931"
    INDEX 01 03:18:28
  TRACK 182 AUDIO
    TITLE "2:cjc090_0932"
    INDEX 01 03:19:56
  TRACK 183 AUDIO
    TITLE "0:"
    INDEX 01 03:21:55
  TRACK 184 AUDIO
    TITLE "3:cjc090_0933"
    INDEX 01 03:22:00
  TRACK 185 AUDIO
    TITLE "2:cjc090_0934"
    INDEX 01 03:23:09
  TRACK 186 AUDIO
    TITLE "0:"
    INDEX 01 03:25:12
  TRACK 187 AUDIO
    TITLE "3:cjc090_0935"
    INDEX 01 03:25:32
  TRACK 188 AUDIO
    TITLE "2:cjc090_0936"
    INDEX 01 03:26:51
  TRACK 189 AUDIO
    TITLE "0:"
    INDEX 01 03:27:56
  TRACK 190 AUDIO
    TITLE "3:cjc090_0937"
    INDEX 01 03:28:00
  TRACK 191 AUDIO
    TITLE "2:cjc090_0938"
    INDEX 01 03:29:16
  TRACK 192 AUDIO
    TITLE "0:"
    INDEX 01 03:31:46
  TRACK 193 AUDIO
    TITLE "3:cjc090_0939"
    INDEX 01 03:31:67
  TRACK 194 AUDIO
    TITLE "2:cjc090_0940"
    INDEX 01 03:33:23
  TRACK 195 AUDIO
    TITLE "0:"
    INDEX 01 03:34:32
  TRACK 196 AUDIO
    TITLE "3:cjc090_0941"
    INDEX 01 03:34:52
  TRACK 197 AUDIO
    TITLE "2:cjc090_0942"
    INDEX 01 03:36:10
  TRACK 198 AUDIO
    TITLE "0:"
    INDEX 01 03:37:21
  TRACK 199 AUDIO
    TITLE "3:cjc090_0943"
    INDEX 01 03:37:43
  TRACK 200 AUDIO
    TITLE "2:cjc090_0944"
    INDEX 01 03:38:52
  TRACK 201 AUDIO
    TITLE "0:"
    INDEX 01 03:39:63
  TRACK 202 AUDIO
    TITLE "3:cjc090_0945"
    INDEX 01 03:40:08
  TRACK 203 AUDIO
    TITLE "2:cjc090_0946"
    INDEX 01 03:41:31
  TRACK 204 AUDIO
    TITLE "0:"
    INDEX 01 03:42:40
  TRACK 205 AUDIO
    TITLE "3:cjc090_0947"
    INDEX 01 03:42:61
  TRACK 206 AUDIO
    TITLE "2:cjc090_0948"
    INDEX 01 03:43:65
  TRACK 207 AUDIO
    TITLE "0:"
    INDEX 01 03:46:02
  TRACK 208 AUDIO
    TITLE "3:cjc090_0949"
    INDEX 01 03:46:24
  TRACK 209 AUDIO
    TITLE "2:cjc090_0950"
    INDEX 01 03:47:19
  TRACK 210 AUDIO
    TITLE "0:"
    INDEX 01 03:49:26
  TRACK 211 AUDIO
    TITLE "3:cjc090_0951"
    INDEX 01 03:49:46
  TRACK 212 AUDIO
    TITLE "2:cjc090_0952"
    INDEX 01 03:50:33
  TRACK 213 AUDIO
    TITLE "0:"
    INDEX 01 03:52:73
  TRACK 214 AUDIO
    TITLE "3:cjc090_0953"
    INDEX 01 03:53:18
  TRACK 215 AUDIO
    TITLE "2:cjc090_0954"
    INDEX 01 03:54:14
  TRACK 216 AUDIO
    TITLE "0:"
    INDEX 01 03:57:43
  TRACK 217 AUDIO
    TITLE "3:cjc090_0955"
    INDEX 01 03:57:65
  TRACK 218 AUDIO
    TITLE "2:cjc090_0956"
    INDEX 01 03:59:58
  TRACK 219 AUDIO
    TITLE "0:"
    INDEX 01 04:02:13
  TRACK 220 AUDIO
    TITLE "3:cjc090_0957"
    INDEX 01 04:02:35
  TRACK 221 AUDIO
    TITLE "2:cjc090_0958"
    INDEX 01 04:03:42
  TRACK 222 AUDIO
    TITLE "0:"
    INDEX 01 04:04:51
  TRACK 223 AUDIO
    TITLE "3:cjc090_0959"
    INDEX 01 04:04:73
  TRACK 224 AUDIO
    TITLE "2:cjc090_0960"
    INDEX 01 04:05:74
  TRACK 225 AUDIO
    TITLE "0:"
    INDEX 01 04:07:65
  TRACK 226 AUDIO
    TITLE "3:cjc090_0961"
    INDEX 01 04:08:10
  TRACK 227 AUDIO
    TITLE "2:cjc090_0962"
    INDEX 01 04:09:15
  TRACK 228 AUDIO
    TITLE "0:"
    INDEX 01 04:11:43
  TRACK 229 AUDIO
    TITLE "3:cjc090_0963"
    INDEX 01 04:11:65
  TRACK 230 AUDIO
    TITLE "2:cjc090_0964"
    INDEX 01 04:12:70
  TRACK 231 AUDIO
    TITLE "0:"
    INDEX 01 04:14:01
  TRACK 232 AUDIO
    TITLE "3:cjc090_0965"
    INDEX 01 04:14:20
  TRACK 233 AUDIO
    TITLE "2:cjc090_0966"
    INDEX 01 04:15:27
  TRACK 234 AUDIO
    TITLE "0:"
    INDEX 01 04:17:19
  TRACK 235 AUDIO
    TITLE "3:cjc090_0967"
    INDEX 01 04:17:38
  TRACK 236 AUDIO
    TITLE "2:cjc090_0968"
    INDEX 01 04:18:61
  TRACK 237 AUDIO
    TITLE "0:"
    INDEX 01 04:19:72
  TRACK 238 AUDIO
    TITLE "3:cjc090_0969"
    INDEX 01 04:20:17
  TRACK 239 AUDIO
    TITLE "2:cjc090_0970"
    INDEX 01 04:21:32
  TRACK 240 AUDIO
    TITLE "0:"
    INDEX 01 04:23:05
  TRACK 241 AUDIO
    TITLE "3:cjc090_0971"
    INDEX 01 04:23:23
  TRACK 242 AUDIO
    TITLE "2:cjc090_0972"
    INDEX 01 04:24:21
  TRACK 243 AUDIO
    TITLE "0:"
    INDEX 01 04:25:51
  TRACK 244 AUDIO
    TITLE "3:cjc090_0973"
    INDEX 01 04:25:73
  TRACK 245 AUDIO
    TITLE "2:cjc090_0974"
    INDEX 01 04:26:70
  TRACK 246 AUDIO
    TITLE "0:"
    INDEX 01 04:27:72
  TRACK 247 AUDIO
    TITLE "3:cjc090_0975"
    INDEX 01 04:28:16
  TRACK 248 AUDIO
    TITLE "2:cjc090_0976"
    INDEX 01 04:29:28
  TRACK 249 AUDIO
    TITLE "0:"
    INDEX 01 04:30:45
  TRACK 250 AUDIO
    TITLE "3:cjc090_0977"
    INDEX 01 04:30:64
  TRACK 251 AUDIO
    TITLE "2:cjc090_0978"
    INDEX 01 04:32:14
  TRACK 252 AUDIO
    TITLE "0:"
    INDEX 01 04:33:25
  TRACK 253 AUDIO
    TITLE "3:cjc090_0979"
    INDEX 01 04:33:45
  TRACK 254 AUDIO
    TITLE "2:cjc090_0980"
    INDEX 01 04:34:64
  TRACK 255 AUDIO
    TITLE "0:"
    INDEX 01 04:36:57
  TRACK 256 AUDIO
    TITLE "3:cjc090_0981"
    INDEX 01 04:37:04
  TRACK 257 AUDIO
    TITLE "2:cjc090_0982"
    INDEX 01 04:38:05
  TRACK 258 AUDIO
    TITLE "0:"
    INDEX 01 04:39:18
  TRACK 259 AUDIO
    TITLE "3:cjc090_0983"
    INDEX 01 04:39:38
  TRACK 260 AUDIO
    TITLE "2:cjc090_0984"
    INDEX 01 04:40:41
  TRACK 261 AUDIO
    TITLE "0:"
    INDEX 01 04:42:54
  TRACK 262 AUDIO
    TITLE "3:cjc090_0985"
    INDEX 01 04:42:71
  TRACK 263 AUDIO
    TITLE "2:cjc090_0986"
    INDEX 01 04:44:02
  TRACK 264 AUDIO
    TITLE "0:"
    INDEX 01 04:45:52
  TRACK 265 AUDIO
    TITLE "3:cjc090_0987"
    INDEX 01 04:45:74
  TRACK 266 AUDIO
    TITLE "2:cjc090_0988"
    INDEX 01 04:47:06
  TRACK 267 AUDIO
    TITLE "0:"
    INDEX 01 04:48:66
  TRACK 268 AUDIO
    TITLE "3:cjc090_0989"
    INDEX 01 04:49:11
  TRACK 269 AUDIO
    TITLE "2:cjc090_0990"
    INDEX 01 04:50:30
  TRACK 270 AUDIO
    TITLE "0:"
    INDEX 01 04:52:21
  TRACK 271 AUDIO
    TITLE "3:cjc090_0991"
    INDEX 01 04:52:40
  TRACK 272 AUDIO
    TITLE "2:cjc090_0992"
    INDEX 01 04:53:56
  TRACK 273 AUDIO
    TITLE "0:"
    INDEX 01 04:55:49
  TRACK 274 AUDIO
    TITLE "3:cjc090_0993"
    INDEX 01 04:55:68
  TRACK 275 AUDIO
    TITLE "2:cjc090_0994"
    INDEX 01 04:57:42
  TRACK 276 AUDIO
    TITLE "0:"
    INDEX 01 04:59:29
  TRACK 277 AUDIO
    TITLE "3:cjc090_0995"
    INDEX 01 04:59:48
  TRACK 278 AUDIO
    TITLE "2:cjc090_0996"
    INDEX 01 05:01:49
  TRACK 279 AUDIO
    TITLE "0:"
    INDEX 01 05:03:34
  TRACK 280 AUDIO
    TITLE "3:cjc090_0997"
    INDEX 01 05:03:54
  TRACK 281 AUDIO
    TITLE "2:cjc090_0998"
    INDEX 01 05:04:53
  TRACK 282 AUDIO
    TITLE "0:"
    INDEX 01 05:07:09
  TRACK 283 AUDIO
    TITLE "3:cjc090_0999"
    INDEX 01 05:07:32
  TRACK 284 AUDIO
    TITLE "2:cjc090_1000"
    INDEX 01 05:08:30
  TRACK 285 AUDIO
    TITLE "0:"
    INDEX 01 05:10:21
  TRACK 286 AUDIO
    TITLE "3:cjc090_1001"
    INDEX 01 05:10:40
  TRACK 287 AUDIO
    TITLE "2:cjc090_1002"
    INDEX 01 05:11:55
  TRACK 288 AUDIO
    TITLE "0:"
    INDEX 01 05:12:53
  TRACK 289 AUDIO
    TITLE "3:cjc090_1003"
    INDEX 01 05:12:72
  TRACK 290 AUDIO
    TITLE "2:cjc090_1004"
    INDEX 01 05:14:03
  TRACK 291 AUDIO
    TITLE "0:"
    INDEX 01 05:15:16
  TRACK 292 AUDIO
    TITLE "3:cjc090_1005"
    INDEX 01 05:15:36
  TRACK 293 AUDIO
    TITLE "2:cjc090_1006"
    INDEX 01 05:17:33
  TRACK 294 AUDIO
    TITLE "0:"
    INDEX 01 05:19:16
  TRACK 295 AUDIO
    TITLE "3:cjc090_1007"
    INDEX 01 05:19:35
  TRACK 296 AUDIO
    TITLE "2:cjc090_1008"
    INDEX 01 05:21:40
  TRACK 297 AUDIO
    TITLE "0:"
    INDEX 01 05:23:23
  TRACK 298 AUDIO
    TITLE "3:cjc090_1009"
    INDEX 01 05:23:43
  TRACK 299 AUDIO
    TITLE "2:cjc090_1010"
    INDEX 01 05:24:56
  TRACK 300 AUDIO
    TITLE "0:"
    INDEX 01 05:26:51
  TRACK 301 AUDIO
    TITLE "3:cjc090_1011"
    INDEX 01 05:26:71
  TRACK 302 AUDIO
    TITLE "2:cjc090_1012"
    INDEX 01 05:28:19
  TRACK 303 AUDIO
    TITLE "0:"
    INDEX 01 05:29:06
  TRACK 304 AUDIO
    TITLE "3:cjc090_1013"
    INDEX 01 05:29:28
  TRACK 305 AUDIO
    TITLE "2:cjc090_1014"
    INDEX 01 05:30:37
  TRACK 306 AUDIO
    TITLE "0:"
    INDEX 01 05:31:62
  TRACK 307 AUDIO
    TITLE "3:cjc090_1015"
    INDEX 01 05:32:09
  TRACK 308 AUDIO
    TITLE "2:cjc090_1016"
    INDEX 01 05:33:16
  TRACK 309 AUDIO
    TITLE "0:"
    INDEX 01 05:34:37
  TRACK 310 AUDIO
    TITLE "3:cjc090_1017"
    INDEX 01 05:34:56
  TRACK 311 AUDIO
    TITLE "2:cjc090_1018"
    INDEX 01 05:36:04
  TRACK 312 AUDIO
    TITLE "0:"
    INDEX 01 05:37:16
  TRACK 313 AUDIO
    TITLE "3:cjc090_1019"
    INDEX 01 05:37:35
  TRACK 314 AUDIO
    TITLE "2:cjc090_1020"
    INDEX 01 05:38:41
  TRACK 315 AUDIO
    TITLE "0:"
    INDEX 01 05:40:16
  TRACK 316 AUDIO
    TITLE "3:cjc090_1021"
    INDEX 01 05:40:36
  TRACK 317 AUDIO
    TITLE "2:cjc090_1022"
    INDEX 01 05:41:55
  TRACK 318 AUDIO
    TITLE "0:"
    INDEX 01 05:43:48
  TRACK 319 AUDIO
    TITLE "3:cjc090_1023"
    INDEX 01 05:43:67
  TRACK 320 AUDIO
    TITLE "2:cjc090_1024"
    INDEX 01 05:44:59
  TRACK 321 AUDIO
    TITLE "0:"
    INDEX 01 05:46:28
  TRACK 322 AUDIO
    TITLE "3:cjc090_1025"
    INDEX 01 05:46:48
  TRACK 323 AUDIO
    TITLE "2:cjc090_1026"
    INDEX 01 05:47:36
  TRACK 324 AUDIO
    TITLE "0:"
    INDEX 01 05:49:11
  TRACK 325 AUDIO
    TITLE "3:cjc090_1027"
    INDEX 01 05:49:31
  TRACK 326 AUDIO
    TITLE "2:cjc090_1028"
    INDEX 01 05:50:32
  TRACK 327 AUDIO
    TITLE "0:"
    INDEX 01 05:51:43
  TRACK 328 AUDIO
    TITLE "3:cjc090_1029"
    INDEX 01 05:51:63
  TRACK 329 AUDIO
    TITLE "2:cjc090_1030"
    INDEX 01 05:52:70
  TRACK 330 AUDIO
    TITLE "0:"
    INDEX 01 05:54:45
  TRACK 331 AUDIO
    TITLE "3:cjc090_1031"
    INDEX 01 05:54:65
  TRACK 332 AUDIO
    TITLE "2:cjc090_1032"
    INDEX 01 05:56:11
  TRACK 333 AUDIO
    TITLE "0:"
    INDEX 01 05:57:73
  TRACK 334 AUDIO
    TITLE "3:cjc090_1033"
    INDEX 01 05:58:20
  TRACK 335 AUDIO
    TITLE "2:cjc090_1034"
    INDEX 01 05:59:17
  TRACK 336 AUDIO
    TITLE "0:"
    INDEX 01 06:00:73
  TRACK 337 AUDIO
    TITLE "3:cjc090_1035"
    INDEX 01 06:01:18
  TRACK 338 AUDIO
    TITLE "2:cjc090_1036"
    INDEX 01 06:02:35
  TRACK 339 AUDIO
    TITLE "0:"
    INDEX 01 06:03:42
  TRACK 340 AUDIO
    TITLE "3:cjc090_1037"
    INDEX 01 06:03:62
  TRACK 341 AUDIO
    TITLE "2:cjc090_1038"
    INDEX 01 06:05:08
  TRACK 342 AUDIO
    TITLE "0:"
    INDEX 01 06:08:40
  TRACK 343 AUDIO
    TITLE "3:cjc090_1039"
    INDEX 01 06:08:59
  TRACK 344 AUDIO
    TITLE "2:cjc090_1040"
    INDEX 01 06:10:07
  TRACK 345 AUDIO
    TITLE "0:"
    INDEX 01 06:11:09
  TRACK 346 AUDIO
    TITLE "3:cjc090_1041"
    INDEX 01 06:11:28
  TRACK 347 AUDIO
    TITLE "2:cjc090_1042"
    INDEX 01 06:12:41
  TRACK 348 AUDIO
    TITLE "0:"
    INDEX 01 06:13:72
  TRACK 349 AUDIO
    TITLE "3:cjc090_1043"
    INDEX 01 06:14:19
  TRACK 350 AUDIO
    TITLE "2:cjc090_1044"
    INDEX 01 06:15:34
  TRACK 351 AUDIO
    TITLE "0:"
    INDEX 01 06:17:07
  TRACK 352 AUDIO
    TITLE "3:cjc090_1045"
    INDEX 01 06:17:29
  TRACK 353 AUDIO
    TITLE "2:cjc090_1046"
    INDEX 01 06:18:52
  TRACK 354 AUDIO
    TITLE "0:"
    INDEX 01 06:20:35
  TRACK 355 AUDIO
    TITLE "3:cjc090_1047"
    INDEX 01 06:20:55
  TRACK 356 AUDIO
    TITLE "2:cjc090_1048"
    INDEX 01 06:21:68
  TRACK 357 AUDIO
    TITLE "0:"
    INDEX 01 06:23:49
  TRACK 358 AUDIO
    TITLE "3:cjc090_1049"
    INDEX 01 06:23:71
  TRACK 359 AUDIO
    TITLE "2:cjc090_1050"
    INDEX 01 06:25:01
  TRACK 360 AUDIO
    TITLE "0:"
    INDEX 01 06:28:42
  TRACK 361 AUDIO
    TITLE "3:cjc090_1051"
    INDEX 01 06:28:62
  TRACK 362 AUDIO
    TITLE "2:cjc090_1052"
    INDEX 01 06:30:10
  TRACK 363 AUDIO
    TITLE "0:"
    INDEX 01 06:32:11
  TRACK 364 AUDIO
    TITLE "3:cjc090_1053"
    INDEX 01 06:32:30
  TRACK 365 AUDIO
    TITLE "2:cjc090_1054"
    INDEX 01 06:33:28
  TRACK 366 AUDIO
    TITLE "0:"
    INDEX 01 06:34:35
  TRACK 367 AUDIO
    TITLE "3:cjc090_1055"
    INDEX 01 06:34:57
  TRACK 368 AUDIO
    TITLE "2:cjc090_1056"
    INDEX 01 06:35:60
  TRACK 369 AUDIO
    TITLE "0:"
    INDEX 01 06:37:02
  TRACK 370 AUDIO
    TITLE "3:cjc090_1057"
    INDEX 01 06:37:22
  TRACK 371 AUDIO
    TITLE "2:cjc090_1058"
    INDEX 01 06:38:53
  TRACK 372 AUDIO
    TITLE "0:"
    INDEX 01 06:40:10
  TRACK 373 AUDIO
    TITLE "3:cjc090_1059"
    INDEX 01 06:40:30
  TRACK 374 AUDIO
    TITLE "2:cjc090_1060"
    INDEX 01 06:41:43
  TRACK 375 AUDIO
    TITLE "0:"
    INDEX 01 06:44:37
  TRACK 376 AUDIO
    TITLE "3:cjc090_1061"
    INDEX 01 06:44:59
  TRACK 377 AUDIO
    TITLE "2:cjc090_1062"
    INDEX 01 06:46:11
  TRACK 378 AUDIO
    TITLE "0:"
    INDEX 01 06:47:55
  TRACK 379 AUDIO
    TITLE "3:cjc090_1063"
    INDEX 01 06:48:02
  TRACK 380 AUDIO
    TITLE "2:cjc090_1064"
    INDEX 01 06:49:37
  TRACK 381 AUDIO
    TITLE "0:"
    INDEX 01 06:52:37
  TRACK 382 AUDIO
    TITLE "3:cjc090_1065"
    INDEX 01 06:52:57
  TRACK 383 AUDIO
    TITLE "2:cjc090_1066"
    INDEX 01 06:53:68
  TRACK 384 AUDIO
    TITLE "0:"
    INDEX 01 06:55:14
  TRACK 385 AUDIO
    TITLE "3:cjc090_1067"
    INDEX 01 06:55:33
  TRACK 386 AUDIO
    TITLE "2:cjc090_1068"
    INDEX 01 06:56:43
  TRACK 387 AUDIO
    TITLE "0:"
    INDEX 01 06:58:55
  TRACK 388 AUDIO
    TITLE "3:cjc090_1069"
    INDEX 01 06:59:02
  TRACK 389 AUDIO
    TITLE "2:cjc090_1070"
    INDEX 01 07:00:19
  TRACK 390 AUDIO
    TITLE "0:"
    INDEX 01 07:01:57
  TRACK 391 AUDIO
    TITLE "3:cjc090_1071"
    INDEX 01 07:02:02
  TRACK 392 AUDIO
    TITLE "2:cjc090_1072"
    INDEX 01 07:03:60
  TRACK 393 AUDIO
    TITLE "0:"
    INDEX 01 07:07:19
  TRACK 394 AUDIO
    TITLE "3:cjc090_1073"
    INDEX 01 07:07:39
  TRACK 395 AUDIO
    TITLE "2:cjc090_1074"
    INDEX 01 07:08:50
  TRACK 396 AUDIO
    TITLE "0:"
    INDEX 01 07:12:10
  TRACK 397 AUDIO
    TITLE "3:cjc090_1075"
    INDEX 01 07:12:30
  TRACK 398 AUDIO
    TITLE "2:cjc090_1076"
    INDEX 01 07:13:47
  TRACK 399 AUDIO
    TITLE "0:"
    INDEX 01 07:16:34
  TRACK 400 AUDIO
    TITLE "3:cjc090_1077"
    INDEX 01 07:16:53
  TRACK 401 AUDIO
    TITLE "2:cjc090_1078"
    INDEX 01 07:18:50
  TRACK 402 AUDIO
    TITLE "0:"
    INDEX 01 07:20:45
  TRACK 403 AUDIO
    TITLE "3:cjc090_1079"
    INDEX 01 07:20:67
  TRACK 404 AUDIO
    TITLE "2:cjc090_1080"
    INDEX 01 07:22:13
  TRACK 405 AUDIO
    TITLE "0:"
    INDEX 01 07:24:19
  TRACK 406 AUDIO
    TITLE "3:cjc090_1081"
    INDEX 01 07:24:39
  TRACK 407 AUDIO
    TITLE "2:cjc090_1082"
    INDEX 01 07:25:54
  TRACK 408 AUDIO
    TITLE "0:"
    INDEX 01 07:27:43
  TRACK 409 AUDIO
    TITLE "3:cjc090_1083"
    INDEX 01 07:27:65
  TRACK 410 AUDIO
    TITLE "2:cjc090_1084"
    INDEX 01 07:28:74
  TRACK 411 AUDIO
    TITLE "0:"
    INDEX 01 07:31:21
  TRACK 412 AUDIO
    TITLE "3:cjc090_1085"
    INDEX 01 07:31:41
  TRACK 413 AUDIO
    TITLE "2:cjc090_1086"
    INDEX 01 07:32:62
  TRACK 414 AUDIO
    TITLE "0:"
    INDEX 01 07:33:67
  TRACK 415 AUDIO
    TITLE "3:cjc090_1087"
    INDEX 01 07:34:12
  TRACK 416 AUDIO
    TITLE "2:cjc090_1088"
    INDEX 01 07:35:13
  TRACK 417 AUDIO
    TITLE "0:"
    INDEX 01 07:36:07
  TRACK 418 AUDIO
    TITLE "3:cjc090_1089"
    INDEX 01 07:36:24
  TRACK 419 AUDIO
    TITLE "2:cjc090_1090"
    INDEX 01 07:37:45
  TRACK 420 AUDIO
    TITLE "0:"
    INDEX 01 07:38:57
  TRACK 421 AUDIO
    TITLE "3:cjc090_1091"
    INDEX 01 07:39:01
  TRACK 422 AUDIO
    TITLE "2:cjc090_1092"
    INDEX 01 07:40:22
  TRACK 423 AUDIO
    TITLE "0:"
    INDEX 01 07:42:47
  TRACK 424 AUDIO
    TITLE "3:cjc090_1093"
    INDEX 01 07:42:66
  TRACK 425 AUDIO
    TITLE "2:cjc090_1094"
    INDEX 01 07:44:00
  TRACK 426 AUDIO
    TITLE "0:"
    INDEX 01 07:45:06
  TRACK 427 AUDIO
    TITLE "3:cjc090_1095"
    INDEX 01 07:45:27
  TRACK 428 AUDIO
    TITLE "2:cjc090_1096"
    INDEX 01 07:46:46
  TRACK 429 AUDIO
    TITLE "0:"
    INDEX 01 07:48:26
  TRACK 430 AUDIO
    TITLE "3:cjc090_1097"
    INDEX 01 07:48:45
  TRACK 431 AUDIO
    TITLE "2:cjc090_1098"
    INDEX 01 07:49:64
  TRACK 432 AUDIO
    TITLE "0:"
    INDEX 01 07:53:27
  TRACK 433 AUDIO
    TITLE "3:cjc090_1099"
    INDEX 01 07:53:46
  TRACK 434 AUDIO
    TITLE "2:cjc090_1100"
    INDEX 01 07:54:60
  TRACK 435 AUDIO
    TITLE "0:"
    INDEX 01 07:56:53
  TRACK 436 AUDIO
    TITLE "3:cjc090_1101"
    INDEX 01 07:56:74
  TRACK 437 AUDIO
    TITLE "2:cjc090_1102"
    INDEX 01 07:58:08
  TRACK 438 AUDIO
    TITLE "0:"
    INDEX 01 07:59:20
  TRACK 439 AUDIO
    TITLE "3:cjc090_1103"
    INDEX 01 07:59:39
  TRACK 440 AUDIO
    TITLE "2:cjc090_1104"
    INDEX 01 08:00:45
  TRACK 441 AUDIO
    TITLE "0:"
    INDEX 01 08:02:73
  TRACK 442 AUDIO
    TITLE "3:cjc090_1105"
    INDEX 01 08:03:19
  TRACK 443 AUDIO
    TITLE "2:cjc090_1106"
    INDEX 01 08:04:46
  TRACK 444 AUDIO
    TITLE "0:"
    INDEX 01 08:05:57
  TRACK 445 AUDIO
    TITLE "3:cjc090_1107"
    INDEX 01 08:06:02
  TRACK 446 AUDIO
    TITLE "2:cjc090_1108"
    INDEX 01 08:07:13
  TRACK 447 AUDIO
    TITLE "0:"
    INDEX 01 08:08:72
  TRACK 448 AUDIO
    TITLE "3:cjc090_1109"
    INDEX 01 08:09:16
  TRACK 449 AUDIO
    TITLE "2:cjc090_1110"
    INDEX 01 08:10:33
  TRACK 450 AUDIO
    TITLE "0:"
    INDEX 01 08:12:26
  TRACK 451 AUDIO
    TITLE "3:cjc090_1111"
    INDEX 01 08:12:46
  TRACK 452 AUDIO
    TITLE "2:cjc090_1112"
    INDEX 01 08:13:63
  TRACK 453 AUDIO
    TITLE "0:"
    INDEX 01 08:17:14
  TRACK 454 AUDIO
    TITLE "3:cjc090_1113"
    INDEX 01 08:17:33
  TRACK 455 AUDIO
    TITLE "2:cjc090_1114"
    INDEX 01 08:18:44
  TRACK 456 AUDIO
    TITLE "0:"
    INDEX 01 08:20:26
  TRACK 457 AUDIO
    TITLE "3:cjc090_1115"
    INDEX 01 08:20:45
  TRACK 458 AUDIO
    TITLE "2:cjc090_1116"
    INDEX 01 08:21:72
  TRACK 459 AUDIO
    TITLE "0:"
    INDEX 01 08:23:06
  TRACK 460 AUDIO
    TITLE "3:cjc090_1117"
    INDEX 01 08:23:28
  TRACK 461 AUDIO
    TITLE "2:cjc090_1118"
    INDEX 01 08:24:33
  TRACK 462 AUDIO
    TITLE "0:"
    INDEX 01 08:25:45
  TRACK 463 AUDIO
    TITLE "3:cjc090_1119"
    INDEX 01 08:25:66
  TRACK 464 AUDIO
    TITLE "2:cjc090_1120"
    INDEX 01 08:26:73
  TRACK 465 AUDIO
    TITLE "0:"
    INDEX 01 08:30:54
  TRACK 466 AUDIO
    TITLE "3:cjc090_1121"
    INDEX 01 08:30:73
  TRACK 467 AUDIO
    TITLE "2:cjc090_1122"
    INDEX 01 08:32:15
  TRACK 468 AUDIO
    TITLE "0:"
    INDEX 01 08:33:28
  TRACK 469 AUDIO
    TITLE "3:cjc090_1123"
    INDEX 01 08:33:48
  TRACK 470 AUDIO
    TITLE "2:cjc090_1124"
    INDEX 01 08:34:53
  TRACK 471 AUDIO
    TITLE "0:"
    INDEX 01 08:35:49
  TRACK 472 AUDIO
    TITLE "3:cjc090_1125"
    INDEX 01 08:35:70
  TRACK 473 AUDIO
    TITLE "2:cjc090_1126"
    INDEX 01 08:37:03
  TRACK 474 AUDIO
    TITLE "0:"
    INDEX 01 08:38:16
  TRACK 475 AUDIO
    TITLE "3:cjc090_1127"
    INDEX 01 08:38:35
  TRACK 476 AUDIO
    TITLE "2:cjc090_1128"
    INDEX 01 08:39:37
  TRACK 477 AUDIO
    TITLE "0:"
    INDEX 01 08:40:54
  TRACK 478 AUDIO
    TITLE "3:cjc090_1129"
    INDEX 01 08:40:73
  TRACK 479 AUDIO
    TITLE "2:cjc090_1130"
    INDEX 01 08:41:69
  TRACK 480 AUDIO
    TITLE "0:"
    INDEX 01 08:44:44
  TRACK 481 AUDIO
    TITLE "3:cjc090_1131"
    INDEX 01 08:44:63
  TRACK 482 AUDIO
    TITLE "2:cjc090_1132"
    INDEX 01 08:46:09
  TRACK 483 AUDIO
    TITLE "0:"
    INDEX 01 08:47:23
  TRACK 484 AUDIO
    TITLE "3:cjc090_1133"
    INDEX 01 08:47:44
  TRACK 485 AUDIO
    TITLE "2:cjc090_1134"
    INDEX 01 08:48:73
  TRACK 486 AUDIO
    TITLE "0:"
    INDEX 01 08:49:74
  TRACK 487 AUDIO
    TITLE "3:cjc090_1135"
    INDEX 01 08:50:19
  TRACK 488 AUDIO
    TITLE "2:cjc090_1136"
    INDEX 01 08:51:26
  TRACK 489 AUDIO
    TITLE "0:"
    INDEX 01 08:54:13
  TRACK 490 AUDIO
    TITLE "3:cjc090_1137"
    INDEX 01 08:54:32
  TRACK 491 AUDIO
    TITLE "2:cjc090_1138"
    INDEX 01 08:55:30
  TRACK 492 AUDIO
    TITLE "0:"
    INDEX 01 08:56:41
  TRACK 493 AUDIO
    TITLE "3:cjc090_1139"
    INDEX 01 08:56:63
  TRACK 494 AUDIO
    TITLE "2:cjc090_1140"
    INDEX 01 08:57:64
  TRACK 495 AUDIO
    TITLE "0:"
    INDEX 01 08:59:51
  TRACK 496 AUDIO
    TITLE "3:cjc090_1141"
    INDEX 01 08:59:71
  TRACK 497 AUDIO
    TITLE "2:cjc090_1142"
    INDEX 01 09:01:03
  TRACK 498 AUDIO
    TITLE "0:"
    INDEX 01 09:03:29
  TRACK 499 AUDIO
    TITLE "3:cjc090_1143"
    INDEX 01 09:03:49
  TRACK 500 AUDIO
    TITLE "2:cjc090_1144"
    INDEX 01 09:04:45
  TRACK 501 AUDIO
    TITLE "0:"
    INDEX 01 09:06:30
  TRACK 502 AUDIO
    TITLE "3:cjc090_1145"
    INDEX 01 09:06:51
  TRACK 503 AUDIO
    TITLE "2:cjc090_1146"
    INDEX 01 09:07:43
  TRACK 504 AUDIO
    TITLE "0:"
    INDEX 01 09:08:60
  TRACK 505 AUDIO
    TITLE "3:cjc090_1147"
    INDEX 01 09:09:03
  TRACK 506 AUDIO
    TITLE "2:cjc090_1148"
    INDEX 01 09:10:12
  TRACK 507 AUDIO
    TITLE "0:"
    INDEX 01 09:11:74
  TRACK 508 AUDIO
    TITLE "3:cjc090_1149"
    INDEX 01 09:12:19
  TRACK 509 AUDIO
    TITLE "2:cjc090_1150"
    INDEX 01 09:13:34
  TRACK 510 AUDIO
    TITLE "0:"
    INDEX 01 09:15:29
  TRACK 511 AUDIO
    TITLE "3:cjc090_1151"
    INDEX 01 09:15:48
  TRACK 512 AUDIO
    TITLE "2:cjc090_1152"
    INDEX 01 09:16:63
  TRACK 513 AUDIO
    TITLE "0:"
    INDEX 01 09:17:67
  TRACK 514 AUDIO
    TITLE "3:cjc090_1153"
    INDEX 01 09:18:11
  TRACK 515 AUDIO
    TITLE "2:cjc090_1154"
    INDEX 01 09:19:13
  TRACK 516 AUDIO
    TITLE "0:"
    INDEX 01 09:21:12
  TRACK 517 AUDIO
    TITLE "3:cjc090_1155"
    INDEX 01 09:21:31
  TRACK 518 AUDIO
    TITLE "2:cjc090_1156"
    INDEX 01 09:22:33
  TRACK 519 AUDIO
    TITLE "0:"
    INDEX 01 09:25:15
  TRACK 520 AUDIO
    TITLE "3:cjc090_1157"
    INDEX 01 09:25:35
  TRACK 521 AUDIO
    TITLE "2:cjc090_1158"
    INDEX 01 09:26:29
  TRACK 522 AUDIO
    TITLE "0:"
    INDEX 01 09:28:24
  TRACK 523 AUDIO
    TITLE "3:cjc090_1159"
    INDEX 01 09:28:43
  TRACK 524 AUDIO
    TITLE "2:cjc090_1160"
    INDEX 01 09:29:56
  TRACK 525 AUDIO
    TITLE "0:"
    INDEX 01 09:32:51
  TRACK 526 AUDIO
    TITLE "3:cjc090_1161"
    INDEX 01 09:32:70
  TRACK 527 AUDIO
    TITLE "2:cjc090_1162"
    INDEX 01 09:34:05
  TRACK 528 AUDIO
    TITLE "0:"
    INDEX 01 09:35:12
  TRACK 529 AUDIO
    TITLE "3:cjc090_1163"
    INDEX 01 09:35:33
  TRACK 530 AUDIO
    TITLE "2:cjc090_1164"
    INDEX 01 09:36:39
  TRACK 531 AUDIO
    TITLE "0:"
    INDEX 01 09:38:26
  TRACK 532 AUDIO
    TITLE "3:cjc090_1165"
    INDEX 01 09:38:47
  TRACK 533 AUDIO
    TITLE "2:cjc090_1166"
    INDEX 01 09:39:72
  TRACK 534 AUDIO
    TITLE "0:"
    INDEX 01 09:41:01
  TRACK 535 AUDIO
    TITLE "3:cjc090_1167"
    INDEX 01 09:41:22
  TRACK 536 AUDIO
    TITLE "2:cjc090_1168"
    INDEX 01 09:42:28
  TRACK 537 AUDIO
    TITLE "0:"
    INDEX 01 09:44:24
  TRACK 538 AUDIO
    TITLE "3:cjc090_1169"
    INDEX 01 09:44:44
  TRACK 539 AUDIO
    TITLE "2:cjc090_1170"
    INDEX 01 09:45:53
  TRACK 540 AUDIO
    TITLE "0:"
    INDEX 01 09:49:37
  TRACK 541 AUDIO
    TITLE "3:cjc090_1171"
    INDEX 01 09:49:59
  TRACK 542 AUDIO
    TITLE "2:cjc090_1172"
    INDEX 01 09:50:68
  TRACK 543 AUDIO
    TITLE "0:"
    INDEX 01 09:54:27
  TRACK 544 AUDIO
    TITLE "3:cjc090_1173"
    INDEX 01 09:54:46
  TRACK 545 AUDIO
    TITLE "2:cjc090_1174"
    INDEX 01 09:55:63
  TRACK 546 AUDIO
    TITLE "0:"
    INDEX 01 09:56:51
  TRACK 547 AUDIO
    TITLE "3:cjc090_1175"
    INDEX 01 09:56:71
  TRACK 548 AUDIO
    TITLE "2:cjc090_1176"
    INDEX 01 09:58:19
  TRACK 549 AUDIO
    TITLE "0:"
    INDEX 01 09:59:26
  TRACK 550 AUDIO
    TITLE "3:cjc090_1177"
    INDEX 01 09:59:46
  TRACK 551 AUDIO
    TITLE "2:cjc090_1178"
    INDEX 01 10:00:71
  TRACK 552 AUDIO
    TITLE "0:"
    INDEX 01 10:02:13
  TRACK 553 AUDIO
    TITLE "3:cjc090_1179"
    INDEX 01 10:02:32
  TRACK 554 AUDIO
    TITLE "2:cjc090_1180"
    INDEX 01 10:03:55
  TRACK 555 AUDIO
    TITLE "0:"
    INDEX 01 10:05:54
  TRACK 556 AUDIO
    TITLE "3:cjc090_1181"
    INDEX 01 10:06:01
  TRACK 557 AUDIO
    TITLE "2:cjc090_1182"
    INDEX 01 10:07:18
  TRACK 558 AUDIO
    TITLE "0:"
    INDEX 01 10:08:21
  TRACK 559 AUDIO
    TITLE "3:cjc090_1183"
    INDEX 01 10:08:41
  TRACK 560 AUDIO
    TITLE "2:cjc090_1184"
    INDEX 01 10:09:36
  TRACK 561 AUDIO
    TITLE "0:"
    INDEX 01 10:12:50
  TRACK 562 AUDIO
    TITLE "3:cjc090_1185"
    INDEX 01 10:12:72
  TRACK 563 AUDIO
    TITLE "2:cjc090_1186"
    INDEX 01 10:14:14
  TRACK 564 AUDIO
    TITLE "0:"
    INDEX 01 10:15:29
  TRACK 565 AUDIO
    TITLE "3:cjc090_1187"
    INDEX 01 10:15:50
  TRACK 566 AUDIO
    TITLE "2:cjc090_1188"
    INDEX 01 10:17:00
  TRACK 567 AUDIO
    TITLE "0:"
    INDEX 01 10:18:57
  TRACK 568 AUDIO
    TITLE "3:cjc090_1189"
    INDEX 01 10:19:01
  TRACK 569 AUDIO
    TITLE "2:cjc090_1190"
    INDEX 01 10:20:28
  TRACK 570 AUDIO
    TITLE "0:"
    INDEX 01 10:21:57
  TRACK 571 AUDIO
    TITLE "3:cjc090_1191"
    INDEX 01 10:22:00
  TRACK 572 AUDIO
    TITLE "2:cjc090_1192"
    INDEX 01 10:23:68
  TRACK 573 AUDIO
    TITLE "0:"
    INDEX 01 10:26:01
  TRACK 574 AUDIO
    TITLE "3:cjc090_1193"
    INDEX 01 10:26:21
  TRACK 575 AUDIO
    TITLE "2:cjc090_1194"
    INDEX 01 10:27:18
  TRACK 576 AUDIO
    TITLE "0:"
    INDEX 01 10:28:26
  TRACK 577 AUDIO
    TITLE "3:cjc090_1195"
    INDEX 01 10:28:45
  TRACK 578 AUDIO
    TITLE "2:cjc090_1196"
    INDEX 01 10:29:58
  TRACK 579 AUDIO
    TITLE "0:"
    INDEX 01 10:31:40
  TRACK 580 AUDIO
    TITLE "3:cjc090_1197"
    INDEX 01 10:31:59
  TRACK 581 AUDIO
    TITLE "2:cjc090_1198"
    INDEX 01 10:33:11
  TRACK 582 AUDIO
    TITLE "0:"
    INDEX 01 10:34:22
  TRACK 583 AUDIO
    TITLE "3:cjc090_1199"
    INDEX 01 10:34:40
  TRACK 584 AUDIO
    TITLE "2:cjc090_1200"
    INDEX 01 10:35:41
  TRACK 585 AUDIO
    TITLE "0:"
    INDEX 01 10:39:35
  TRACK 586 AUDIO
    TITLE "3:cjc090_1201"
    INDEX 01 10:39:57
  TRACK 587 AUDIO
    TITLE "2:cjc090_1202"
    INDEX 01 10:41:03
  TRACK 588 AUDIO
    TITLE "0:"
    INDEX 01 10:43:00
  TRACK 589 AUDIO
    TITLE "3:cjc090_1203"
    INDEX 01 10:43:21
  TRACK 590 AUDIO
    TITLE "2:cjc090_1204"
    INDEX 01 10:44:25
  TRACK 591 AUDIO
    TITLE "0:"
    INDEX 01 10:46:67
  TRACK 592 AUDIO
    TITLE "3:cjc090_1205"
    INDEX 01 10:47:11
  TRACK 593 AUDIO
    TITLE "2:cjc090_1206"
    INDEX 01 10:48:28
  TRACK 594 AUDIO
    TITLE "0:"
    INDEX 01 10:50:35
  TRACK 595 AUDIO
    TITLE "3:cjc090_1207"
    INDEX 01 10:50:55
  TRACK 596 AUDIO
    TITLE "2:cjc090_1208"
    INDEX 01 10:51:54
  TRACK 597 AUDIO
    TITLE "0:"
    INDEX 01 10:53:49
  TRACK 598 AUDIO
    TITLE "3:cjc090_1209"
    INDEX 01 10:53:71
  TRACK 599 AUDIO
    TITLE "2:cjc090_1210"
    INDEX 01 10:55:21
  TRACK 600 AUDIO
    TITLE "0:"
    INDEX 01 10:56:22
  TRACK 601 AUDIO
    TITLE "3:cjc090_1211"
    INDEX 01 10:56:42
  TRACK 602 AUDIO
    TITLE "2:cjc090_1212"
    INDEX 01 10:57:65
  TRACK 603 AUDIO
    TITLE "0:"
    INDEX 01 10:58:68
  TRACK 604 AUDIO
    TITLE "3:cjc090_1213"
    INDEX 01 10:59:13
  TRACK 605 AUDIO
    TITLE "2:cjc090_1214"
    INDEX 01 11:00:18
  TRACK 606 AUDIO
    TITLE "0:"
    INDEX 01 11:02:09
  TRACK 607 AUDIO
    TITLE "3:cjc090_1215"
    INDEX 01 11:02:29
  TRACK 608 AUDIO
    TITLE "2:cjc090_1216"
    INDEX 01 11:03:32
  TRACK 609 AUDIO
    TITLE "0:"
    INDEX 01 11:06:24
  TRACK 610 AUDIO
    TITLE "3:cjc090_1217"
    INDEX 01 11:06:46
  TRACK 611 AUDIO
    TITLE "2:cjc090_1218"
    INDEX 01 11:07:38
  TRACK 612 AUDIO
    TITLE "0:"
    INDEX 01 11:09:21
  TRACK 613 AUDIO
    TITLE "3:cjc090_1219"
    INDEX 01 11:09:40
  TRACK 614 AUDIO
    TITLE "2:cjc090_1220"
    INDEX 01 11:10:52
  TRACK 615 AUDIO
    TITLE "0:"
    INDEX 01 11:11:53
